<svg width="286" height="283" viewBox="0 0 286 283" fill="none" xmlns="http://www.w3.org/2000/svg">
<g clip-path="url(#clip0_1_900)">
<rect width="45.0522" height="302.46" transform="matrix(0.998676 0.0514483 -0.0998018 0.995007 -26.814 -19)" fill="#616FC6"/>
<rect width="45.0522" height="302.46" transform="matrix(0.998676 0.0514483 -0.0998018 0.995007 198.149 -7.41064)" fill="#616FC6"/>
<rect width="45.0522" height="302.46" transform="matrix(0.998676 0.0514483 -0.0998018 0.995007 108.167 -12.0464)" fill="#EF87BF"/>
<rect width="45.0522" height="302.46" transform="matrix(0.998676 0.0514483 -0.0998018 0.995007 18.1802 -16.6821)" fill="#7DD3B2"/>
<rect width="45.0522" height="302.46" transform="matrix(0.998676 0.0514483 -0.0998018 0.995007 243.143 -5.09277)" fill="#7DD3B2"/>
<rect width="45.0522" height="302.46" transform="matrix(0.998676 0.0514483 -0.0998018 0.995007 153.159 -9.72852)" fill="#6041E8"/>
<rect width="45.0522" height="302.46" transform="matrix(0.998676 0.0514483 -0.0998018 0.995007 63.1743 -14.3643)" fill="#EC605A"/>
<rect width="45.0522" height="302.46" transform="matrix(0.998676 0.0514483 -0.0998018 0.995007 288.135 -2.7749)" fill="#EC605A"/>
<path d="M115.783 131.554C115.253 129.321 114.575 127.486 113.574 125.305C102.809 101.858 77.2982 91.9485 54.6691 102.338C32.449 112.539 23.6367 139.362 33.6503 161.173C43.9768 183.666 70.3171 192.865 92.1283 182.851C108.078 175.529 117.403 159.529 117.055 139.717L93.8803 150.357C92.3902 156.818 89.5008 160.95 83.3664 163.766C74.0967 168.022 64.2432 165.614 59.0734 157.589L115.783 131.554ZM52.3366 142.196C50.4162 133.339 55.2518 125.177 63.431 121.422C72.1555 117.417 81.3497 119.468 86.6892 126.424L52.3366 142.196Z" fill="white"/>
<path d="M257.8 184V132.55C257.8 109.3 245.5 97.8999 226.9 97.8999C215.5 97.8999 206.5 103.3 200.5 112.75C195.25 103.3 187.3 97.8999 176.5 97.8999C165.85 97.8999 157.9 101.8 153.55 109.6H153.25V100.75H130V184H154.9V139.15C154.9 127.6 159.25 121.3 169 121.3C177.55 121.3 181.45 127.3 181.45 138.1V184H206.35V137.95C206.35 127 210.7 121.3 220.15 121.3C228.7 121.3 232.9 126.1 232.9 139.15V184H257.8Z" fill="white"/>
</g>
<defs>
<clipPath id="clip0_1_900">
<rect width="286" height="283" rx="8" fill="white"/>
</clipPath>
</defs>
</svg>
