<svg width="935" height="395" viewBox="0 0 935 395" fill="none" xmlns="http://www.w3.org/2000/svg">
<mask id="path-1-outside-1_50_16" maskUnits="userSpaceOnUse" x="-0.394531" y="-0.39502" width="935" height="396" fill="black">
<rect fill="white" x="-0.394531" y="-0.39502" width="935" height="396"/>
<path d="M144.701 144.849H162.607V162.755H144.701V144.849ZM180.512 144.849H198.418V162.755H180.512V144.849ZM198.418 144.849H216.323V162.755H198.418V144.849ZM162.607 126.944H180.512V144.849H162.607V126.944ZM162.607 109.038H180.512V126.944H162.607V109.038ZM162.607 91.1326H180.512V109.038H162.607V91.1326ZM162.607 73.2271H180.512V91.1326H162.607V73.2271ZM180.512 55.3216H198.418V73.2271H180.512V55.3216ZM198.418 55.3216H216.323V73.2271H198.418V55.3216ZM216.323 73.2271H234.229V91.1326H216.323V73.2271ZM216.323 91.1326H234.229V109.038H216.323V91.1326ZM198.418 91.1326H216.323V109.038H198.418V91.1326ZM180.512 91.1326H198.418V109.038H180.512V91.1326ZM216.323 126.944H234.229V144.849H216.323V126.944Z"/>
<path d="M270.127 144.849H288.033V162.755H270.127V144.849ZM305.938 144.849H323.844V162.755H305.938V144.849ZM288.033 126.944H305.938V144.849H288.033V126.944ZM288.033 109.038H305.938V126.944H288.033V109.038ZM288.033 91.1326H305.938V109.038H288.033V91.1326ZM288.033 73.2271H305.938V91.1326H288.033V73.2271ZM270.127 55.3216H288.033V73.2271H270.127V55.3216ZM252.222 73.2271H270.127V91.1326H252.222V73.2271ZM305.938 73.2271H323.844V91.1326H305.938V73.2271ZM323.844 55.3216H341.749V73.2271H323.844V55.3216ZM341.749 73.2271H359.655V91.1326H341.749V73.2271ZM341.749 91.1326H359.655V109.038H341.749V91.1326ZM341.749 109.038H359.655V126.944H341.749V109.038ZM341.749 126.944H359.655V144.849H341.749V126.944ZM359.655 144.849H377.56V162.755H359.655V144.849ZM359.655 73.2271H377.56V91.1326H359.655V73.2271ZM377.56 55.3216H395.466V73.2271H377.56V55.3216ZM395.466 73.2271H413.371V91.1326H395.466V73.2271ZM395.466 91.1326H413.371V109.038H395.466V91.1326ZM395.466 109.038H413.371V126.944H395.466V109.038ZM395.466 126.944H413.371V144.849H395.466V126.944ZM413.371 144.849H431.277V162.755H413.371V144.849Z"/>
<path d="M466.983 144.849H484.889V162.755H466.983V144.849ZM502.794 144.849H520.7V162.755H502.794V144.849ZM484.889 126.944H502.794V144.849H484.889V126.944ZM484.889 109.038H502.794V126.944H484.889V109.038ZM484.889 91.1326H502.794V109.038H484.889V91.1326ZM484.889 73.2271H502.794V91.1326H484.889V73.2271ZM466.983 55.3216H484.889V73.2271H466.983V55.3216ZM449.078 73.2271H466.983V91.1326H449.078V73.2271ZM484.889 1.60498H502.794V19.5105H484.889V1.60498ZM502.794 55.3216H520.7V73.2271H502.794V55.3216Z"/>
<path d="M538.64 144.849H556.546V162.755H538.64V144.849ZM574.451 144.849H592.357V162.755H574.451V144.849ZM556.546 126.944H574.451V144.849H556.546V126.944ZM556.546 109.038H574.451V126.944H556.546V109.038ZM556.546 91.1326H574.451V109.038H556.546V91.1326ZM556.546 73.2271H574.451V91.1326H556.546V73.2271ZM556.546 55.3216H574.451V73.2271H556.546V55.3216ZM556.546 37.416H574.451V55.3216H556.546V37.416ZM556.546 19.5105H574.451V37.416H556.546V19.5105ZM574.451 1.60498H592.357V19.5105H574.451V1.60498Z"/>
<path d="M628.15 144.849H646.056V162.755H628.15V144.849ZM663.961 144.849H681.867V162.755H663.961V144.849ZM646.056 126.944H663.961V144.849H646.056V126.944ZM646.056 109.038H663.961V126.944H646.056V109.038ZM646.056 91.1326H663.961V109.038H646.056V91.1326ZM646.056 73.2271H663.961V91.1326H646.056V73.2271ZM628.15 55.3216H646.056V73.2271H628.15V55.3216ZM610.245 73.2271H628.15V91.1326H610.245V73.2271ZM646.056 1.60498H663.961V19.5105H646.056V1.60498ZM663.961 55.3216H681.867V73.2271H663.961V55.3216Z"/>
<path d="M699.807 144.849H717.713V162.755H699.807V144.849ZM735.618 144.849H753.524V162.755H735.618V144.849ZM753.524 144.849H771.429V162.755H753.524V144.849ZM717.713 126.944H735.618V144.849H717.713V126.944ZM717.713 109.038H735.618V126.944H717.713V109.038ZM717.713 91.1326H735.618V109.038H717.713V91.1326ZM717.713 73.2271H735.618V91.1326H717.713V73.2271ZM735.618 55.3216H753.524V73.2271H735.618V55.3216ZM753.524 55.3216H771.429V73.2271H753.524V55.3216ZM771.429 73.2271H789.335V91.1326H771.429V73.2271ZM771.429 91.1326H789.335V109.038H771.429V91.1326ZM753.524 91.1326H771.429V109.038H753.524V91.1326ZM735.618 91.1326H753.524V109.038H735.618V91.1326ZM771.429 126.944H789.335V144.849H771.429V126.944Z"/>
<path d="M19.511 321.399H37.4165V339.305H19.511V321.399ZM55.322 321.399H73.2276V339.305H55.322V321.399ZM37.4165 303.494H55.322V321.399H37.4165V303.494ZM37.4165 285.588H55.322V303.494H37.4165V285.588ZM37.4165 267.682H55.322V285.588H37.4165V267.682ZM37.4165 249.777H55.322V267.682H37.4165V249.777ZM19.511 231.871H37.4165V249.777H19.511V231.871ZM1.60547 249.777H19.511V267.682H1.60547V249.777ZM55.322 249.777H73.2276V267.682H55.322V249.777ZM73.2276 231.871H91.1331V249.777H73.2276V231.871ZM91.1331 249.777H109.039V267.682H91.1331V249.777ZM91.1331 267.682H109.039V285.588H91.1331V267.682ZM91.1331 285.588H109.039V303.494H91.1331V285.588ZM91.1331 303.494H109.039V321.399H91.1331V303.494ZM109.039 321.399H126.944V339.305H109.039V321.399ZM109.039 249.777H126.944V267.682H109.039V249.777ZM126.944 231.871H144.85V249.777H126.944V231.871ZM144.85 249.777H162.755V267.682H144.85V249.777ZM144.85 267.682H162.755V285.588H144.85V267.682ZM144.85 285.588H162.755V303.494H144.85V285.588ZM144.85 303.494H162.755V321.399H144.85V303.494ZM162.755 321.399H180.661V339.305H162.755V321.399Z"/>
<path d="M198.461 321.399H216.367V339.305H198.461V321.399ZM216.367 303.494H234.272V321.399H216.367V303.494ZM216.367 285.588H234.272V303.494H216.367V285.588ZM216.367 267.682H234.272V285.588H216.367V267.682ZM216.367 249.777H234.272V267.682H216.367V249.777ZM234.272 231.871H252.178V249.777H234.272V231.871ZM252.178 231.871H270.083V249.777H252.178V231.871ZM287.989 231.871H305.894V249.777H287.989V231.871ZM270.083 249.777H287.989V267.682H270.083V249.777ZM270.083 267.682H287.989V285.588H270.083V267.682ZM270.083 285.588H287.989V303.494H270.083V285.588ZM270.083 303.494H287.989V321.399H270.083V303.494ZM234.272 321.399H252.178V339.305H234.272V321.399ZM252.178 303.494H270.083V321.399H252.178V303.494ZM287.989 321.399H305.894V339.305H287.989V321.399Z"/>
<path d="M323.713 249.777H341.618V267.682H323.713V249.777ZM341.618 231.871H359.524V249.777H341.618V231.871ZM359.524 231.871H377.429V249.777H359.524V231.871ZM395.335 249.777H413.24V267.682H395.335V249.777ZM377.429 267.682H395.335V285.588H377.429V267.682ZM359.524 285.588H377.429V303.494H359.524V285.588ZM341.618 303.494H359.524V321.399H341.618V303.494ZM377.429 303.494H395.335V321.399H377.429V303.494ZM359.524 375.116H377.429V393.021H359.524V375.116ZM377.429 375.116H395.335V393.021H377.429V375.116ZM341.618 375.116H359.524V393.021H341.618V375.116ZM323.713 357.21H341.618V375.116H323.713V357.21ZM395.335 321.399H413.24V339.305H395.335V321.399ZM395.335 339.305H413.24V357.21H395.335V339.305ZM395.335 357.21H413.24V375.116H395.335V357.21ZM377.429 231.871H395.335V249.777H377.429V231.871ZM395.335 231.871H413.24V249.777H395.335V231.871ZM395.335 303.494H413.24V321.399H395.335V303.494Z"/>
<path d="M431.233 249.777H449.139V267.682H431.233V249.777ZM449.139 231.871H467.044V249.777H449.139V231.871ZM467.044 249.777H484.95V267.682H467.044V249.777ZM467.044 267.682H484.95V285.588H467.044V267.682ZM467.044 285.588H484.95V303.494H467.044V285.588ZM467.044 303.494H484.95V321.399H467.044V303.494ZM484.95 321.399H502.855V339.305H484.95V321.399ZM449.139 321.399H467.044V339.305H449.139V321.399ZM520.761 303.494H538.666V321.399H520.761V303.494ZM502.855 303.494H520.761V321.399H502.855V303.494ZM538.666 321.399H556.572V339.305H538.666V321.399ZM556.572 303.494H574.477V321.399H556.572V303.494ZM520.761 285.588H538.666V303.494H520.761V285.588ZM520.761 267.682H538.666V285.588H520.761V267.682ZM520.761 249.777H538.666V267.682H520.761V249.777ZM520.761 231.871H538.666V249.777H520.761V231.871ZM538.666 249.777H556.572V267.682H538.666V249.777ZM556.572 231.871H574.477V249.777H556.572V231.871Z"/>
<path d="M628.211 285.588H646.117V303.494H628.211V285.588ZM628.211 267.682H646.117V285.588H628.211V267.682ZM628.211 249.777H646.117V267.682H628.211V249.777ZM610.306 231.871H628.211V249.777H610.306V231.871ZM592.4 249.777H610.306V267.682H592.4V249.777ZM646.117 231.871H664.022V249.777H646.117V231.871ZM664.022 231.871H681.928V249.777H664.022V231.871ZM681.928 249.777H699.833V267.682H681.928V249.777ZM628.211 303.494H646.117V321.399H628.211V303.494ZM610.306 321.399H628.211V339.305H610.306V321.399ZM664.022 303.494H681.928V321.399H664.022V303.494ZM646.117 321.399H664.022V339.305H646.117V321.399Z"/>
<path d="M717.652 321.399H735.557V339.305H717.652V321.399ZM753.463 321.399H771.368V339.305H753.463V321.399ZM771.368 321.399H789.274V339.305H771.368V321.399ZM735.557 303.494H753.463V321.399H735.557V303.494ZM735.557 285.588H753.463V303.494H735.557V285.588ZM735.557 267.682H753.463V285.588H735.557V267.682ZM735.557 249.777H753.463V267.682H735.557V249.777ZM753.463 231.871H771.368V249.777H753.463V231.871ZM771.368 231.871H789.274V249.777H771.368V231.871ZM789.274 249.777H807.179V267.682H789.274V249.777ZM789.274 267.682H807.179V285.588H789.274V267.682ZM771.368 267.682H789.274V285.588H771.368V267.682ZM753.463 267.682H771.368V285.588H753.463V267.682ZM789.274 303.494H807.179V321.399H789.274V303.494Z"/>
<path d="M825.172 321.399H843.078V339.305H825.172V321.399ZM860.983 321.399H878.889V339.305H860.983V321.399ZM843.078 303.494H860.983V321.399H843.078V303.494ZM843.078 285.588H860.983V303.494H843.078V285.588ZM843.078 267.682H860.983V285.588H843.078V267.682ZM843.078 249.777H860.983V267.682H843.078V249.777ZM843.078 231.871H860.983V249.777H843.078V231.871ZM843.078 196.06H860.983V213.966H843.078V196.06ZM843.078 213.966H860.983V231.871H843.078V213.966ZM860.983 178.155H878.889V196.06H860.983V178.155ZM860.983 285.588H878.889V303.494H860.983V285.588ZM878.889 267.682H896.794V285.588H878.889V267.682ZM896.794 249.777H914.7V267.682H896.794V249.777ZM914.7 231.871H932.605V249.777H914.7V231.871ZM896.794 285.588H914.7V303.494H896.794V285.588ZM896.794 303.494H914.7V321.399H896.794V303.494ZM914.7 321.399H932.605V339.305H914.7V321.399Z"/>
</mask>
<path d="M180.512 109.038V109.841H181.315V109.038H180.512ZM180.512 91.1326H181.315V90.3301H180.512V91.1326ZM216.323 91.1326V90.3301H215.521V91.1326H216.323ZM305.938 91.1326V91.9351H306.741V91.1326H305.938ZM359.655 91.1326V91.9351H360.457V91.1326H359.655ZM735.618 109.038V109.841H736.421V109.038H735.618ZM735.618 91.1326H736.421V90.3301H735.618V91.1326ZM771.429 91.1326V90.3301H770.627V91.1326H771.429ZM55.322 267.682V268.485H56.1245V267.682H55.322ZM109.039 267.682V268.485H109.841V267.682H109.039ZM270.083 303.494V302.691H269.281V303.494H270.083ZM395.335 249.777H394.532V250.579H395.335V249.777ZM395.335 321.399H394.532V322.202H395.335V321.399ZM520.761 303.494V302.691H519.958V303.494H520.761ZM538.666 267.682V268.485H539.469V267.682H538.666ZM538.666 249.777H539.469V248.974H538.666V249.777ZM753.463 285.588V286.391H754.265V285.588H753.463ZM753.463 267.682H754.265V266.88H753.463V267.682ZM789.274 267.682V266.88H788.471V267.682H789.274ZM860.983 303.494V304.296H861.786V303.494H860.983ZM860.983 285.588H861.786V284.785H860.983V285.588ZM198.418 144.849H197.615V162.755H198.418H199.22V144.849H198.418ZM162.607 126.944V127.746H180.512V126.944V126.141H162.607V126.944ZM162.607 109.038V109.841H180.512V109.038V108.236H162.607V109.038ZM162.607 91.1326V91.9351H180.512V91.1326V90.3301H162.607V91.1326ZM180.512 91.1326H179.71V109.038H180.512H181.315V91.1326H180.512ZM198.418 55.3216H197.615V73.2271H198.418H199.22V55.3216H198.418ZM234.229 91.1326V90.3301H216.323V91.1326V91.9351H234.229V91.1326ZM216.323 109.038H217.126V91.1326H216.323H215.521V109.038H216.323ZM198.418 109.038H199.22V91.1326H198.418H197.615V109.038H198.418ZM288.033 126.944V127.746H305.938V126.944V126.141H288.033V126.944ZM288.033 109.038V109.841H305.938V109.038V108.236H288.033V109.038ZM288.033 91.1326V91.9351H305.938V91.1326V90.3301H288.033V91.1326ZM305.938 73.2271H305.136V91.1326H305.938H306.741V73.2271H305.938ZM359.655 73.2271H358.852V91.1326H359.655H360.457V73.2271H359.655ZM359.655 91.1326V90.3301H341.749V91.1326V91.9351H359.655V91.1326ZM359.655 109.038V108.236H341.749V109.038V109.841H359.655V109.038ZM359.655 126.944V126.141H341.749V126.944V127.746H359.655V126.944ZM413.371 91.1326V90.3301H395.466V91.1326V91.9351H413.371V91.1326ZM413.371 109.038V108.236H395.466V109.038V109.841H413.371V109.038ZM413.371 126.944V126.141H395.466V126.944V127.746H413.371V126.944ZM484.889 126.944V127.746H502.794V126.944V126.141H484.889V126.944ZM484.889 109.038V109.841H502.794V109.038V108.236H484.889V109.038ZM484.889 91.1326V91.9351H502.794V91.1326V90.3301H484.889V91.1326ZM556.546 126.944V127.746H574.451V126.944V126.141H556.546V126.944ZM556.546 109.038V109.841H574.451V109.038V108.236H556.546V109.038ZM556.546 91.1326V91.9351H574.451V91.1326V90.3301H556.546V91.1326ZM556.546 73.2271V74.0296H574.451V73.2271V72.4246H556.546V73.2271ZM556.546 55.3216V56.1241H574.451V55.3216V54.5191H556.546V55.3216ZM556.546 37.416V38.2185H574.451V37.416V36.6135H556.546V37.416ZM646.056 126.944V127.746H663.961V126.944V126.141H646.056V126.944ZM646.056 109.038V109.841H663.961V109.038V108.236H646.056V109.038ZM646.056 91.1326V91.9351H663.961V91.1326V90.3301H646.056V91.1326ZM753.524 144.849H752.721V162.755H753.524H754.326V144.849H753.524ZM717.713 126.944V127.746H735.618V126.944V126.141H717.713V126.944ZM717.713 109.038V109.841H735.618V109.038V108.236H717.713V109.038ZM717.713 91.1326V91.9351H735.618V91.1326V90.3301H717.713V91.1326ZM735.618 91.1326H734.816V109.038H735.618H736.421V91.1326H735.618ZM753.524 55.3216H752.721V73.2271H753.524H754.326V55.3216H753.524ZM789.335 91.1326V90.3301H771.429V91.1326V91.9351H789.335V91.1326ZM771.429 109.038H772.232V91.1326H771.429H770.627V109.038H771.429ZM753.524 109.038H754.326V91.1326H753.524H752.721V109.038H753.524ZM37.4165 303.494V304.296H55.322V303.494V302.691H37.4165V303.494ZM37.4165 285.588V286.391H55.322V285.588V284.785H37.4165V285.588ZM37.4165 267.682V268.485H55.322V267.682V266.88H37.4165V267.682ZM55.322 249.777H54.5195V267.682H55.322H56.1245V249.777H55.322ZM109.039 249.777H108.236V267.682H109.039H109.841V249.777H109.039ZM109.039 267.682V266.88H91.1331V267.682V268.485H109.039V267.682ZM109.039 285.588V284.785H91.1331V285.588V286.391H109.039V285.588ZM109.039 303.494V302.691H91.1331V303.494V304.296H109.039V303.494ZM162.755 267.682V266.88H144.85V267.682V268.485H162.755V267.682ZM162.755 285.588V284.785H144.85V285.588V286.391H162.755V285.588ZM162.755 303.494V302.691H144.85V303.494V304.296H162.755V303.494ZM216.367 303.494V304.296H234.272V303.494V302.691H216.367V303.494ZM216.367 285.588V286.391H234.272V285.588V284.785H216.367V285.588ZM216.367 267.682V268.485H234.272V267.682V266.88H216.367V267.682ZM252.178 231.871H251.375V249.777H252.178H252.98V231.871H252.178ZM287.989 267.682V266.88H270.083V267.682V268.485H287.989V267.682ZM287.989 285.588V284.785H270.083V285.588V286.391H287.989V285.588ZM287.989 303.494V302.691H270.083V303.494V304.296H287.989V303.494ZM270.083 321.399H270.886V303.494H270.083H269.281V321.399H270.083ZM359.524 231.871H358.721V249.777H359.524H360.326V231.871H359.524ZM377.429 231.871H376.627V249.777H377.429H378.232V231.871H377.429ZM395.335 249.777V250.579H413.24V249.777V248.974H395.335V249.777ZM395.335 303.494H394.532V321.399H395.335H396.137V303.494H395.335ZM377.429 375.116H376.627V393.021H377.429H378.232V375.116H377.429ZM359.524 393.021H360.326V375.116H359.524H358.721V393.021H359.524ZM395.335 321.399V322.202H413.24V321.399V320.597H395.335V321.399ZM413.24 339.305V338.502H395.335V339.305V340.107H413.24V339.305ZM413.24 357.21V356.408H395.335V357.21V358.013H413.24V357.21ZM395.335 231.871H394.532V249.777H395.335H396.137V231.871H395.335ZM484.95 267.682V266.88H467.044V267.682V268.485H484.95V267.682ZM484.95 285.588V284.785H467.044V285.588V286.391H484.95V285.588ZM484.95 303.494V302.691H467.044V303.494V304.296H484.95V303.494ZM520.761 303.494V304.296H538.666V303.494V302.691H520.761V303.494ZM520.761 321.399H521.563V303.494H520.761H519.958V321.399H520.761ZM520.761 285.588V286.391H538.666V285.588V284.785H520.761V285.588ZM520.761 267.682V268.485H538.666V267.682V266.88H520.761V267.682ZM520.761 249.777V250.579H538.666V249.777V248.974H520.761V249.777ZM538.666 249.777H537.864V267.682H538.666H539.469V249.777H538.666ZM628.211 285.588V286.391H646.117V285.588V284.785H628.211V285.588ZM646.117 303.494V302.691H628.211V303.494V304.296H646.117V303.494ZM628.211 267.682V268.485H646.117V267.682V266.88H628.211V267.682ZM664.022 231.871H663.22V249.777H664.022H664.825V231.871H664.022ZM771.368 321.399H770.566V339.305H771.368H772.171V321.399H771.368ZM735.557 303.494V304.296H753.463V303.494V302.691H735.557V303.494ZM735.557 285.588V286.391H753.463V285.588V284.785H735.557V285.588ZM735.557 267.682V268.485H753.463V267.682V266.88H735.557V267.682ZM753.463 267.682H752.66V285.588H753.463H754.265V267.682H753.463ZM771.368 231.871H770.566V249.777H771.368H772.171V231.871H771.368ZM807.179 267.682V266.88H789.274V267.682V268.485H807.179V267.682ZM789.274 285.588H790.076V267.682H789.274H788.471V285.588H789.274ZM771.368 285.588H772.171V267.682H771.368H770.566V285.588H771.368ZM843.078 303.494V304.296H860.983V303.494V302.691H843.078V303.494ZM843.078 285.588V286.391H860.983V285.588V284.785H843.078V285.588ZM860.983 285.588H860.181V303.494H860.983H861.786V285.588H860.983ZM843.078 267.682V268.485H860.983V267.682V266.88H843.078V267.682ZM843.078 249.777V250.579H860.983V249.777V248.974H843.078V249.777ZM843.078 231.871V232.674H860.983V231.871V231.069H843.078V231.871ZM860.983 213.966V213.163H843.078V213.966V214.768H860.983V213.966ZM914.7 303.494V302.691H896.794V303.494V304.296H914.7V303.494ZM144.701 144.849V143.244H143.096V144.849H144.701ZM162.607 162.755V164.36H164.212V162.755H162.607ZM144.701 162.755H143.096V164.36H144.701V162.755ZM180.512 162.755H178.907V164.36H180.512V162.755ZM216.323 162.755V164.36H217.928V162.755H216.323ZM180.512 109.038V107.433H178.907V109.038H180.512ZM180.512 91.1326H178.907V92.7376H180.512V91.1326ZM162.607 73.2271V71.6221H161.002V73.2271H162.607ZM180.512 55.3216V53.7166H178.907V55.3216H180.512ZM216.323 55.3216H217.928V53.7166H216.323V55.3216ZM234.229 73.2271H235.834V71.6221H234.229V73.2271ZM216.323 91.1326V92.7376H217.928V91.1326H216.323ZM234.229 109.038V110.643H235.834V109.038H234.229ZM216.323 126.944V125.339H214.718V126.944H216.323ZM234.229 126.944H235.834V125.339H234.229V126.944ZM234.229 144.849V146.454H235.834V144.849H234.229ZM270.127 144.849V143.244H268.522V144.849H270.127ZM288.033 162.755V164.36H289.638V162.755H288.033ZM270.127 162.755H268.522V164.36H270.127V162.755ZM323.844 144.849H325.449V143.244H323.844V144.849ZM323.844 162.755V164.36H325.449V162.755H323.844ZM305.938 162.755H304.333V164.36H305.938V162.755ZM305.938 91.1326V89.5276H304.333V91.1326H305.938ZM270.127 55.3216V53.7166H268.522V55.3216H270.127ZM288.033 55.3216H289.638V53.7166H288.033V55.3216ZM252.222 73.2271V71.6221H250.617V73.2271H252.222ZM270.127 91.1326V92.7376H271.732V91.1326H270.127ZM252.222 91.1326H250.617V92.7376H252.222V91.1326ZM323.844 91.1326V92.7376H325.449V91.1326H323.844ZM323.844 55.3216V53.7166H322.239V55.3216H323.844ZM341.749 55.3216H343.354V53.7166H341.749V55.3216ZM359.655 91.1326V89.5276H358.05V91.1326H359.655ZM341.749 144.849H340.144V146.454H341.749V144.849ZM377.56 144.849H379.165V143.244H377.56V144.849ZM377.56 162.755V164.36H379.165V162.755H377.56ZM359.655 162.755H358.05V164.36H359.655V162.755ZM377.56 91.1326V92.7376H379.165V91.1326H377.56ZM377.56 55.3216V53.7166H375.955V55.3216H377.56ZM395.466 55.3216H397.071V53.7166H395.466V55.3216ZM413.371 73.2271H414.976V71.6221H413.371V73.2271ZM395.466 144.849H393.861V146.454H395.466V144.849ZM431.277 144.849H432.882V143.244H431.277V144.849ZM431.277 162.755V164.36H432.882V162.755H431.277ZM413.371 162.755H411.766V164.36H413.371V162.755ZM466.983 144.849V143.244H465.378V144.849H466.983ZM484.889 162.755V164.36H486.494V162.755H484.889ZM466.983 162.755H465.378V164.36H466.983V162.755ZM520.7 144.849H522.305V143.244H520.7V144.849ZM520.7 162.755V164.36H522.305V162.755H520.7ZM502.794 162.755H501.189V164.36H502.794V162.755ZM466.983 55.3216V53.7166H465.378V55.3216H466.983ZM484.889 55.3216H486.494V53.7166H484.889V55.3216ZM449.078 73.2271V71.6221H447.473V73.2271H449.078ZM466.983 91.1326V92.7376H468.588V91.1326H466.983ZM449.078 91.1326H447.473V92.7376H449.078V91.1326ZM484.889 1.60498V-1.8239e-05H483.284V1.60498H484.889ZM502.794 1.60498H504.399V-1.8239e-05H502.794V1.60498ZM502.794 19.5105V21.1155H504.399V19.5105H502.794ZM484.889 19.5105H483.284V21.1155H484.889V19.5105ZM502.794 55.3216V53.7166H501.189V55.3216H502.794ZM520.7 55.3216H522.305V53.7166H520.7V55.3216ZM520.7 73.2271V74.8321H522.305V73.2271H520.7ZM538.64 144.849V143.244H537.035V144.849H538.64ZM556.546 162.755V164.36H558.151V162.755H556.546ZM538.64 162.755H537.035V164.36H538.64V162.755ZM592.357 144.849H593.962V143.244H592.357V144.849ZM592.357 162.755V164.36H593.962V162.755H592.357ZM574.451 162.755H572.846V164.36H574.451V162.755ZM556.546 19.5105V17.9055H554.941V19.5105H556.546ZM574.451 1.60498V-1.8239e-05H572.846V1.60498H574.451ZM592.357 1.60498H593.962V-1.8239e-05H592.357V1.60498ZM592.357 19.5105V21.1155H593.962V19.5105H592.357ZM628.15 144.849V143.244H626.545V144.849H628.15ZM646.056 162.755V164.36H647.661V162.755H646.056ZM628.15 162.755H626.545V164.36H628.15V162.755ZM681.867 144.849H683.472V143.244H681.867V144.849ZM681.867 162.755V164.36H683.472V162.755H681.867ZM663.961 162.755H662.356V164.36H663.961V162.755ZM628.15 55.3216V53.7166H626.545V55.3216H628.15ZM646.056 55.3216H647.661V53.7166H646.056V55.3216ZM610.245 73.2271V71.6221H608.64V73.2271H610.245ZM628.15 91.1326V92.7376H629.755V91.1326H628.15ZM610.245 91.1326H608.64V92.7376H610.245V91.1326ZM646.056 1.60498V-1.8239e-05H644.451V1.60498H646.056ZM663.961 1.60498H665.566V-1.8239e-05H663.961V1.60498ZM663.961 19.5105V21.1155H665.566V19.5105H663.961ZM646.056 19.5105H644.451V21.1155H646.056V19.5105ZM663.961 55.3216V53.7166H662.356V55.3216H663.961ZM681.867 55.3216H683.472V53.7166H681.867V55.3216ZM681.867 73.2271V74.8321H683.472V73.2271H681.867ZM699.807 144.849V143.244H698.202V144.849H699.807ZM717.713 162.755V164.36H719.318V162.755H717.713ZM699.807 162.755H698.202V164.36H699.807V162.755ZM735.618 162.755H734.013V164.36H735.618V162.755ZM771.429 162.755V164.36H773.034V162.755H771.429ZM735.618 109.038V107.433H734.013V109.038H735.618ZM735.618 91.1326H734.013V92.7376H735.618V91.1326ZM717.713 73.2271V71.6221H716.108V73.2271H717.713ZM735.618 55.3216V53.7166H734.013V55.3216H735.618ZM771.429 55.3216H773.034V53.7166H771.429V55.3216ZM789.335 73.2271H790.94V71.6221H789.335V73.2271ZM771.429 91.1326V92.7376H773.034V91.1326H771.429ZM789.335 109.038V110.643H790.94V109.038H789.335ZM771.429 126.944V125.339H769.824V126.944H771.429ZM789.335 126.944H790.94V125.339H789.335V126.944ZM789.335 144.849V146.454H790.94V144.849H789.335ZM19.511 321.399V319.794H17.906V321.399H19.511ZM37.4165 339.305V340.91H39.0215V339.305H37.4165ZM19.511 339.305H17.906V340.91H19.511V339.305ZM73.2276 321.399H74.8326V319.794H73.2276V321.399ZM73.2276 339.305V340.91H74.8326V339.305H73.2276ZM55.322 339.305H53.717V340.91H55.322V339.305ZM55.322 267.682V266.077H53.717V267.682H55.322ZM19.511 231.871V230.266H17.906V231.871H19.511ZM37.4165 231.871H39.0215V230.266H37.4165V231.871ZM1.60547 249.777V248.172H0.000470042V249.777H1.60547ZM19.511 267.682V269.287H21.116V267.682H19.511ZM1.60547 267.682H0.000470042V269.287H1.60547V267.682ZM73.2276 267.682V269.287H74.8326V267.682H73.2276ZM73.2276 231.871V230.266H71.6226V231.871H73.2276ZM91.1331 231.871H92.7381V230.266H91.1331V231.871ZM109.039 267.682V266.077H107.434V267.682H109.039ZM91.1331 321.399H89.5281V323.004H91.1331V321.399ZM126.944 321.399H128.549V319.794H126.944V321.399ZM126.944 339.305V340.91H128.549V339.305H126.944ZM109.039 339.305H107.434V340.91H109.039V339.305ZM126.944 267.682V269.287H128.549V267.682H126.944ZM126.944 231.871V230.266H125.339V231.871H126.944ZM144.85 231.871H146.455V230.266H144.85V231.871ZM162.755 249.777H164.36V248.172H162.755V249.777ZM144.85 321.399H143.245V323.004H144.85V321.399ZM180.661 321.399H182.266V319.794H180.661V321.399ZM180.661 339.305V340.91H182.266V339.305H180.661ZM162.755 339.305H161.15V340.91H162.755V339.305ZM198.461 321.399V319.794H196.856V321.399H198.461ZM216.367 339.305V340.91H217.972V339.305H216.367ZM198.461 339.305H196.856V340.91H198.461V339.305ZM216.367 249.777V248.172H214.762V249.777H216.367ZM234.272 231.871V230.266H232.667V231.871H234.272ZM270.083 231.871H271.688V230.266H270.083V231.871ZM287.989 231.871V230.266H286.384V231.871H287.989ZM305.894 231.871H307.499V230.266H305.894V231.871ZM305.894 249.777V251.382H307.499V249.777H305.894ZM270.083 303.494V305.099H271.688V303.494H270.083ZM252.178 339.305V340.91H253.783V339.305H252.178ZM234.272 339.305H232.667V340.91H234.272V339.305ZM252.178 303.494V301.889H250.573V303.494H252.178ZM305.894 321.399H307.499V319.794H305.894V321.399ZM305.894 339.305V340.91H307.499V339.305H305.894ZM287.989 339.305H286.384V340.91H287.989V339.305ZM323.713 249.777V248.172H322.108V249.777H323.713ZM341.618 267.682V269.287H343.223V267.682H341.618ZM323.713 267.682H322.108V269.287H323.713V267.682ZM341.618 231.871V230.266H340.013V231.871H341.618ZM395.335 249.777H396.94V248.172H395.335V249.777ZM413.24 267.682V269.287H414.845V267.682H413.24ZM377.429 267.682V266.077H375.824V267.682H377.429ZM395.335 285.588V287.193H396.94V285.588H395.335ZM359.524 285.588V283.983H357.919V285.588H359.524ZM341.618 303.494V301.889H340.013V303.494H341.618ZM359.524 321.399V323.004H361.129V321.399H359.524ZM341.618 321.399H340.013V323.004H341.618V321.399ZM395.335 321.399H396.94V319.794H395.335V321.399ZM377.429 321.399H375.824V323.004H377.429V321.399ZM395.335 393.021V394.626H396.94V393.021H395.335ZM341.618 393.021H340.013V394.626H341.618V393.021ZM323.713 357.21V355.605H322.108V357.21H323.713ZM341.618 357.21H343.223V355.605H341.618V357.21ZM323.713 375.116H322.108V376.721H323.713V375.116ZM413.24 375.116V376.721H414.845V375.116H413.24ZM413.24 231.871H414.845V230.266H413.24V231.871ZM413.24 303.494H414.845V301.889H413.24V303.494ZM431.233 249.777V248.172H429.628V249.777H431.233ZM449.139 267.682V269.287H450.744V267.682H449.139ZM431.233 267.682H429.628V269.287H431.233V267.682ZM449.139 231.871V230.266H447.534V231.871H449.139ZM467.044 231.871H468.649V230.266H467.044V231.871ZM484.95 249.777H486.555V248.172H484.95V249.777ZM502.855 339.305V340.91H504.46V339.305H502.855ZM484.95 339.305H483.345V340.91H484.95V339.305ZM449.139 321.399V319.794H447.534V321.399H449.139ZM467.044 339.305V340.91H468.649V339.305H467.044ZM449.139 339.305H447.534V340.91H449.139V339.305ZM520.761 303.494V305.099H522.366V303.494H520.761ZM502.855 303.494V301.889H501.25V303.494H502.855ZM556.572 339.305V340.91H558.177V339.305H556.572ZM538.666 339.305H537.061V340.91H538.666V339.305ZM556.572 303.494V301.889H554.967V303.494H556.572ZM574.477 303.494H576.082V301.889H574.477V303.494ZM574.477 321.399V323.004H576.082V321.399H574.477ZM538.666 267.682V266.077H537.061V267.682H538.666ZM538.666 249.777H537.061V251.382H538.666V249.777ZM520.761 231.871V230.266H519.156V231.871H520.761ZM538.666 231.871H540.271V230.266H538.666V231.871ZM556.572 267.682V269.287H558.177V267.682H556.572ZM556.572 231.871V230.266H554.967V231.871H556.572ZM574.477 231.871H576.082V230.266H574.477V231.871ZM574.477 249.777V251.382H576.082V249.777H574.477ZM610.306 231.871V230.266H608.701V231.871H610.306ZM628.211 231.871H629.816V230.266H628.211V231.871ZM592.4 249.777V248.172H590.795V249.777H592.4ZM610.306 267.682V269.287H611.911V267.682H610.306ZM592.4 267.682H590.795V269.287H592.4V267.682ZM646.117 231.871V230.266H644.512V231.871H646.117ZM681.928 231.871H683.533V230.266H681.928V231.871ZM699.833 249.777H701.438V248.172H699.833V249.777ZM699.833 267.682V269.287H701.438V267.682H699.833ZM681.928 267.682H680.323V269.287H681.928V267.682ZM610.306 321.399V319.794H608.701V321.399H610.306ZM628.211 339.305V340.91H629.816V339.305H628.211ZM610.306 339.305H608.701V340.91H610.306V339.305ZM664.022 303.494V301.889H662.417V303.494H664.022ZM681.928 303.494H683.533V301.889H681.928V303.494ZM681.928 321.399V323.004H683.533V321.399H681.928ZM664.022 339.305V340.91H665.627V339.305H664.022ZM646.117 339.305H644.512V340.91H646.117V339.305ZM717.652 321.399V319.794H716.047V321.399H717.652ZM735.557 339.305V340.91H737.162V339.305H735.557ZM717.652 339.305H716.047V340.91H717.652V339.305ZM753.463 339.305H751.858V340.91H753.463V339.305ZM789.274 339.305V340.91H790.879V339.305H789.274ZM753.463 285.588V283.983H751.858V285.588H753.463ZM753.463 267.682H751.858V269.287H753.463V267.682ZM735.557 249.777V248.172H733.952V249.777H735.557ZM753.463 231.871V230.266H751.858V231.871H753.463ZM789.274 231.871H790.879V230.266H789.274V231.871ZM807.179 249.777H808.784V248.172H807.179V249.777ZM789.274 267.682V269.287H790.879V267.682H789.274ZM807.179 285.588V287.193H808.784V285.588H807.179ZM789.274 303.494V301.889H787.669V303.494H789.274ZM807.179 303.494H808.784V301.889H807.179V303.494ZM807.179 321.399V323.004H808.784V321.399H807.179ZM825.172 321.399V319.794H823.567V321.399H825.172ZM843.078 339.305V340.91H844.683V339.305H843.078ZM825.172 339.305H823.567V340.91H825.172V339.305ZM878.889 321.399H880.494V319.794H878.889V321.399ZM878.889 339.305V340.91H880.494V339.305H878.889ZM860.983 339.305H859.378V340.91H860.983V339.305ZM860.983 303.494V301.889H859.378V303.494H860.983ZM860.983 285.588H859.378V287.193H860.983V285.588ZM843.078 196.06V194.455H841.473V196.06H843.078ZM860.983 178.155V176.55H859.378V178.155H860.983ZM878.889 178.155H880.494V176.55H878.889V178.155ZM878.889 196.06V197.665H880.494V196.06H878.889ZM878.889 303.494V305.099H880.494V303.494H878.889ZM878.889 267.682V266.077H877.284V267.682H878.889ZM896.794 249.777V248.172H895.189V249.777H896.794ZM914.7 267.682V269.287H916.305V267.682H914.7ZM914.7 231.871V230.266H913.095V231.871H914.7ZM932.605 231.871H934.21V230.266H932.605V231.871ZM932.605 249.777V251.382H934.21V249.777H932.605ZM914.7 285.588H916.305V283.983H914.7V285.588ZM896.794 321.399H895.189V323.004H896.794V321.399ZM932.605 321.399H934.21V319.794H932.605V321.399ZM932.605 339.305V340.91H934.21V339.305H932.605ZM914.7 339.305H913.095V340.91H914.7V339.305ZM144.701 144.849V146.454H162.607V144.849V143.244H144.701V144.849ZM162.607 144.849H161.002V162.755H162.607H164.212V144.849H162.607ZM162.607 162.755V161.15H144.701V162.755V164.36H162.607V162.755ZM144.701 162.755H146.306V144.849H144.701H143.096V162.755H144.701ZM180.512 144.849V146.454H198.418V144.849V143.244H180.512V144.849ZM198.418 162.755V161.15H180.512V162.755V164.36H198.418V162.755ZM180.512 162.755H182.117V144.849H180.512H178.907V162.755H180.512ZM198.418 144.849V146.454H216.323V144.849V143.244H198.418V144.849ZM216.323 144.849H214.718V162.755H216.323H217.928V144.849H216.323ZM216.323 162.755V161.15H198.418V162.755V164.36H216.323V162.755ZM180.512 126.944H178.907V144.849H180.512H182.117V126.944H180.512ZM180.512 144.849V143.244H162.607V144.849V146.454H180.512V144.849ZM162.607 144.849H164.212V126.944H162.607H161.002V144.849H162.607ZM180.512 109.038H178.907V126.944H180.512H182.117V109.038H180.512ZM162.607 126.944H164.212V109.038H162.607H161.002V126.944H162.607ZM162.607 109.038H164.212V91.1326H162.607H161.002V109.038H162.607ZM162.607 73.2271V74.8321H180.512V73.2271V71.6221H162.607V73.2271ZM180.512 73.2271H178.907V91.1326H180.512H182.117V73.2271H180.512ZM162.607 91.1326H164.212V73.2271H162.607H161.002V91.1326H162.607ZM180.512 55.3216V56.9266H198.418V55.3216V53.7166H180.512V55.3216ZM198.418 73.2271V71.6221H180.512V73.2271V74.8321H198.418V73.2271ZM180.512 73.2271H182.117V55.3216H180.512H178.907V73.2271H180.512ZM198.418 55.3216V56.9266H216.323V55.3216V53.7166H198.418V55.3216ZM216.323 55.3216H214.718V73.2271H216.323H217.928V55.3216H216.323ZM216.323 73.2271V71.6221H198.418V73.2271V74.8321H216.323V73.2271ZM216.323 73.2271V74.8321H234.229V73.2271V71.6221H216.323V73.2271ZM234.229 73.2271H232.624V91.1326H234.229H235.834V73.2271H234.229ZM216.323 91.1326H217.928V73.2271H216.323H214.718V91.1326H216.323ZM234.229 91.1326H232.624V109.038H234.229H235.834V91.1326H234.229ZM234.229 109.038V107.433H216.323V109.038V110.643H234.229V109.038ZM198.418 91.1326V92.7376H216.323V91.1326V89.5276H198.418V91.1326ZM216.323 109.038V107.433H198.418V109.038V110.643H216.323V109.038ZM180.512 91.1326V92.7376H198.418V91.1326V89.5276H180.512V91.1326ZM198.418 109.038V107.433H180.512V109.038V110.643H198.418V109.038ZM216.323 126.944V128.549H234.229V126.944V125.339H216.323V126.944ZM234.229 126.944H232.624V144.849H234.229H235.834V126.944H234.229ZM234.229 144.849V143.244H216.323V144.849V146.454H234.229V144.849ZM216.323 144.849H217.928V126.944H216.323H214.718V144.849H216.323ZM270.127 144.849V146.454H288.033V144.849V143.244H270.127V144.849ZM288.033 144.849H286.428V162.755H288.033H289.638V144.849H288.033ZM288.033 162.755V161.15H270.127V162.755V164.36H288.033V162.755ZM270.127 162.755H271.732V144.849H270.127H268.522V162.755H270.127ZM305.938 144.849V146.454H323.844V144.849V143.244H305.938V144.849ZM323.844 144.849H322.239V162.755H323.844H325.449V144.849H323.844ZM323.844 162.755V161.15H305.938V162.755V164.36H323.844V162.755ZM305.938 162.755H307.543V144.849H305.938H304.333V162.755H305.938ZM305.938 126.944H304.333V144.849H305.938H307.543V126.944H305.938ZM305.938 144.849V143.244H288.033V144.849V146.454H305.938V144.849ZM288.033 144.849H289.638V126.944H288.033H286.428V144.849H288.033ZM305.938 109.038H304.333V126.944H305.938H307.543V109.038H305.938ZM288.033 126.944H289.638V109.038H288.033H286.428V126.944H288.033ZM305.938 91.1326H304.333V109.038H305.938H307.543V91.1326H305.938ZM288.033 109.038H289.638V91.1326H288.033H286.428V109.038H288.033ZM288.033 73.2271V74.8321H305.938V73.2271V71.6221H288.033V73.2271ZM288.033 91.1326H289.638V73.2271H288.033H286.428V91.1326H288.033ZM270.127 55.3216V56.9266H288.033V55.3216V53.7166H270.127V55.3216ZM288.033 55.3216H286.428V73.2271H288.033H289.638V55.3216H288.033ZM288.033 73.2271V71.6221H270.127V73.2271V74.8321H288.033V73.2271ZM270.127 73.2271H271.732V55.3216H270.127H268.522V73.2271H270.127ZM252.222 73.2271V74.8321H270.127V73.2271V71.6221H252.222V73.2271ZM270.127 73.2271H268.522V91.1326H270.127H271.732V73.2271H270.127ZM270.127 91.1326V89.5276H252.222V91.1326V92.7376H270.127V91.1326ZM252.222 91.1326H253.827V73.2271H252.222H250.617V91.1326H252.222ZM305.938 73.2271V74.8321H323.844V73.2271V71.6221H305.938V73.2271ZM323.844 73.2271H322.239V91.1326H323.844H325.449V73.2271H323.844ZM323.844 91.1326V89.5276H305.938V91.1326V92.7376H323.844V91.1326ZM323.844 55.3216V56.9266H341.749V55.3216V53.7166H323.844V55.3216ZM341.749 55.3216H340.144V73.2271H341.749H343.354V55.3216H341.749ZM341.749 73.2271V71.6221H323.844V73.2271V74.8321H341.749V73.2271ZM323.844 73.2271H325.449V55.3216H323.844H322.239V73.2271H323.844ZM341.749 73.2271V74.8321H359.655V73.2271V71.6221H341.749V73.2271ZM341.749 91.1326H343.354V73.2271H341.749H340.144V91.1326H341.749ZM359.655 91.1326H358.05V109.038H359.655H361.26V91.1326H359.655ZM341.749 109.038H343.354V91.1326H341.749H340.144V109.038H341.749ZM359.655 109.038H358.05V126.944H359.655H361.26V109.038H359.655ZM341.749 126.944H343.354V109.038H341.749H340.144V126.944H341.749ZM359.655 126.944H358.05V144.849H359.655H361.26V126.944H359.655ZM359.655 144.849V143.244H341.749V144.849V146.454H359.655V144.849ZM341.749 144.849H343.354V126.944H341.749H340.144V144.849H341.749ZM359.655 144.849V146.454H377.56V144.849V143.244H359.655V144.849ZM377.56 144.849H375.955V162.755H377.56H379.165V144.849H377.56ZM377.56 162.755V161.15H359.655V162.755V164.36H377.56V162.755ZM359.655 162.755H361.26V144.849H359.655H358.05V162.755H359.655ZM359.655 73.2271V74.8321H377.56V73.2271V71.6221H359.655V73.2271ZM377.56 73.2271H375.955V91.1326H377.56H379.165V73.2271H377.56ZM377.56 91.1326V89.5276H359.655V91.1326V92.7376H377.56V91.1326ZM377.56 55.3216V56.9266H395.466V55.3216V53.7166H377.56V55.3216ZM395.466 55.3216H393.861V73.2271H395.466H397.071V55.3216H395.466ZM395.466 73.2271V71.6221H377.56V73.2271V74.8321H395.466V73.2271ZM377.56 73.2271H379.165V55.3216H377.56H375.955V73.2271H377.56ZM395.466 73.2271V74.8321H413.371V73.2271V71.6221H395.466V73.2271ZM413.371 73.2271H411.766V91.1326H413.371H414.976V73.2271H413.371ZM395.466 91.1326H397.071V73.2271H395.466H393.861V91.1326H395.466ZM413.371 91.1326H411.766V109.038H413.371H414.976V91.1326H413.371ZM395.466 109.038H397.071V91.1326H395.466H393.861V109.038H395.466ZM413.371 109.038H411.766V126.944H413.371H414.976V109.038H413.371ZM395.466 126.944H397.071V109.038H395.466H393.861V126.944H395.466ZM413.371 126.944H411.766V144.849H413.371H414.976V126.944H413.371ZM413.371 144.849V143.244H395.466V144.849V146.454H413.371V144.849ZM395.466 144.849H397.071V126.944H395.466H393.861V144.849H395.466ZM413.371 144.849V146.454H431.277V144.849V143.244H413.371V144.849ZM431.277 144.849H429.672V162.755H431.277H432.882V144.849H431.277ZM431.277 162.755V161.15H413.371V162.755V164.36H431.277V162.755ZM413.371 162.755H414.976V144.849H413.371H411.766V162.755H413.371ZM466.983 144.849V146.454H484.889V144.849V143.244H466.983V144.849ZM484.889 144.849H483.284V162.755H484.889H486.494V144.849H484.889ZM484.889 162.755V161.15H466.983V162.755V164.36H484.889V162.755ZM466.983 162.755H468.588V144.849H466.983H465.378V162.755H466.983ZM502.794 144.849V146.454H520.7V144.849V143.244H502.794V144.849ZM520.7 144.849H519.095V162.755H520.7H522.305V144.849H520.7ZM520.7 162.755V161.15H502.794V162.755V164.36H520.7V162.755ZM502.794 162.755H504.399V144.849H502.794H501.189V162.755H502.794ZM502.794 126.944H501.189V144.849H502.794H504.399V126.944H502.794ZM502.794 144.849V143.244H484.889V144.849V146.454H502.794V144.849ZM484.889 144.849H486.494V126.944H484.889H483.284V144.849H484.889ZM502.794 109.038H501.189V126.944H502.794H504.399V109.038H502.794ZM484.889 126.944H486.494V109.038H484.889H483.284V126.944H484.889ZM502.794 91.1326H501.189V109.038H502.794H504.399V91.1326H502.794ZM484.889 109.038H486.494V91.1326H484.889H483.284V109.038H484.889ZM484.889 73.2271V74.8321H502.794V73.2271V71.6221H484.889V73.2271ZM502.794 73.2271H501.189V91.1326H502.794H504.399V73.2271H502.794ZM484.889 91.1326H486.494V73.2271H484.889H483.284V91.1326H484.889ZM466.983 55.3216V56.9266H484.889V55.3216V53.7166H466.983V55.3216ZM484.889 55.3216H483.284V73.2271H484.889H486.494V55.3216H484.889ZM484.889 73.2271V71.6221H466.983V73.2271V74.8321H484.889V73.2271ZM466.983 73.2271H468.588V55.3216H466.983H465.378V73.2271H466.983ZM449.078 73.2271V74.8321H466.983V73.2271V71.6221H449.078V73.2271ZM466.983 73.2271H465.378V91.1326H466.983H468.588V73.2271H466.983ZM466.983 91.1326V89.5276H449.078V91.1326V92.7376H466.983V91.1326ZM449.078 91.1326H450.683V73.2271H449.078H447.473V91.1326H449.078ZM484.889 1.60498V3.20998H502.794V1.60498V-1.8239e-05H484.889V1.60498ZM502.794 1.60498H501.189V19.5105H502.794H504.399V1.60498H502.794ZM502.794 19.5105V17.9055H484.889V19.5105V21.1155H502.794V19.5105ZM484.889 19.5105H486.494V1.60498H484.889H483.284V19.5105H484.889ZM502.794 55.3216V56.9266H520.7V55.3216V53.7166H502.794V55.3216ZM520.7 55.3216H519.095V73.2271H520.7H522.305V55.3216H520.7ZM520.7 73.2271V71.6221H502.794V73.2271V74.8321H520.7V73.2271ZM502.794 73.2271H504.399V55.3216H502.794H501.189V73.2271H502.794ZM538.64 144.849V146.454H556.546V144.849V143.244H538.64V144.849ZM556.546 144.849H554.941V162.755H556.546H558.151V144.849H556.546ZM556.546 162.755V161.15H538.64V162.755V164.36H556.546V162.755ZM538.64 162.755H540.245V144.849H538.64H537.035V162.755H538.64ZM574.451 144.849V146.454H592.357V144.849V143.244H574.451V144.849ZM592.357 144.849H590.752V162.755H592.357H593.962V144.849H592.357ZM592.357 162.755V161.15H574.451V162.755V164.36H592.357V162.755ZM574.451 162.755H576.056V144.849H574.451H572.846V162.755H574.451ZM574.451 126.944H572.846V144.849H574.451H576.056V126.944H574.451ZM574.451 144.849V143.244H556.546V144.849V146.454H574.451V144.849ZM556.546 144.849H558.151V126.944H556.546H554.941V144.849H556.546ZM574.451 109.038H572.846V126.944H574.451H576.056V109.038H574.451ZM556.546 126.944H558.151V109.038H556.546H554.941V126.944H556.546ZM574.451 91.1326H572.846V109.038H574.451H576.056V91.1326H574.451ZM556.546 109.038H558.151V91.1326H556.546H554.941V109.038H556.546ZM574.451 73.2271H572.846V91.1326H574.451H576.056V73.2271H574.451ZM556.546 91.1326H558.151V73.2271H556.546H554.941V91.1326H556.546ZM574.451 55.3216H572.846V73.2271H574.451H576.056V55.3216H574.451ZM556.546 73.2271H558.151V55.3216H556.546H554.941V73.2271H556.546ZM574.451 37.416H572.846V55.3216H574.451H576.056V37.416H574.451ZM556.546 55.3216H558.151V37.416H556.546H554.941V55.3216H556.546ZM556.546 19.5105V21.1155H574.451V19.5105V17.9055H556.546V19.5105ZM574.451 19.5105H572.846V37.416H574.451H576.056V19.5105H574.451ZM556.546 37.416H558.151V19.5105H556.546H554.941V37.416H556.546ZM574.451 1.60498V3.20998H592.357V1.60498V-1.8239e-05H574.451V1.60498ZM592.357 1.60498H590.752V19.5105H592.357H593.962V1.60498H592.357ZM592.357 19.5105V17.9055H574.451V19.5105V21.1155H592.357V19.5105ZM574.451 19.5105H576.056V1.60498H574.451H572.846V19.5105H574.451ZM628.15 144.849V146.454H646.056V144.849V143.244H628.15V144.849ZM646.056 144.849H644.451V162.755H646.056H647.661V144.849H646.056ZM646.056 162.755V161.15H628.15V162.755V164.36H646.056V162.755ZM628.15 162.755H629.755V144.849H628.15H626.545V162.755H628.15ZM663.961 144.849V146.454H681.867V144.849V143.244H663.961V144.849ZM681.867 144.849H680.262V162.755H681.867H683.472V144.849H681.867ZM681.867 162.755V161.15H663.961V162.755V164.36H681.867V162.755ZM663.961 162.755H665.566V144.849H663.961H662.356V162.755H663.961ZM663.961 126.944H662.356V144.849H663.961H665.566V126.944H663.961ZM663.961 144.849V143.244H646.056V144.849V146.454H663.961V144.849ZM646.056 144.849H647.661V126.944H646.056H644.451V144.849H646.056ZM663.961 109.038H662.356V126.944H663.961H665.566V109.038H663.961ZM646.056 126.944H647.661V109.038H646.056H644.451V126.944H646.056ZM663.961 91.1326H662.356V109.038H663.961H665.566V91.1326H663.961ZM646.056 109.038H647.661V91.1326H646.056H644.451V109.038H646.056ZM646.056 73.2271V74.8321H663.961V73.2271V71.6221H646.056V73.2271ZM663.961 73.2271H662.356V91.1326H663.961H665.566V73.2271H663.961ZM646.056 91.1326H647.661V73.2271H646.056H644.451V91.1326H646.056ZM628.15 55.3216V56.9266H646.056V55.3216V53.7166H628.15V55.3216ZM646.056 55.3216H644.451V73.2271H646.056H647.661V55.3216H646.056ZM646.056 73.2271V71.6221H628.15V73.2271V74.8321H646.056V73.2271ZM628.15 73.2271H629.755V55.3216H628.15H626.545V73.2271H628.15ZM610.245 73.2271V74.8321H628.15V73.2271V71.6221H610.245V73.2271ZM628.15 73.2271H626.545V91.1326H628.15H629.755V73.2271H628.15ZM628.15 91.1326V89.5276H610.245V91.1326V92.7376H628.15V91.1326ZM610.245 91.1326H611.85V73.2271H610.245H608.64V91.1326H610.245ZM646.056 1.60498V3.20998H663.961V1.60498V-1.8239e-05H646.056V1.60498ZM663.961 1.60498H662.356V19.5105H663.961H665.566V1.60498H663.961ZM663.961 19.5105V17.9055H646.056V19.5105V21.1155H663.961V19.5105ZM646.056 19.5105H647.661V1.60498H646.056H644.451V19.5105H646.056ZM663.961 55.3216V56.9266H681.867V55.3216V53.7166H663.961V55.3216ZM681.867 55.3216H680.262V73.2271H681.867H683.472V55.3216H681.867ZM681.867 73.2271V71.6221H663.961V73.2271V74.8321H681.867V73.2271ZM663.961 73.2271H665.566V55.3216H663.961H662.356V73.2271H663.961ZM699.807 144.849V146.454H717.713V144.849V143.244H699.807V144.849ZM717.713 144.849H716.108V162.755H717.713H719.318V144.849H717.713ZM717.713 162.755V161.15H699.807V162.755V164.36H717.713V162.755ZM699.807 162.755H701.412V144.849H699.807H698.202V162.755H699.807ZM735.618 144.849V146.454H753.524V144.849V143.244H735.618V144.849ZM753.524 162.755V161.15H735.618V162.755V164.36H753.524V162.755ZM735.618 162.755H737.223V144.849H735.618H734.013V162.755H735.618ZM753.524 144.849V146.454H771.429V144.849V143.244H753.524V144.849ZM771.429 144.849H769.824V162.755H771.429H773.034V144.849H771.429ZM771.429 162.755V161.15H753.524V162.755V164.36H771.429V162.755ZM735.618 126.944H734.013V144.849H735.618H737.223V126.944H735.618ZM735.618 144.849V143.244H717.713V144.849V146.454H735.618V144.849ZM717.713 144.849H719.318V126.944H717.713H716.108V144.849H717.713ZM735.618 109.038H734.013V126.944H735.618H737.223V109.038H735.618ZM717.713 126.944H719.318V109.038H717.713H716.108V126.944H717.713ZM717.713 109.038H719.318V91.1326H717.713H716.108V109.038H717.713ZM717.713 73.2271V74.8321H735.618V73.2271V71.6221H717.713V73.2271ZM735.618 73.2271H734.013V91.1326H735.618H737.223V73.2271H735.618ZM717.713 91.1326H719.318V73.2271H717.713H716.108V91.1326H717.713ZM735.618 55.3216V56.9266H753.524V55.3216V53.7166H735.618V55.3216ZM753.524 73.2271V71.6221H735.618V73.2271V74.8321H753.524V73.2271ZM735.618 73.2271H737.223V55.3216H735.618H734.013V73.2271H735.618ZM753.524 55.3216V56.9266H771.429V55.3216V53.7166H753.524V55.3216ZM771.429 55.3216H769.824V73.2271H771.429H773.034V55.3216H771.429ZM771.429 73.2271V71.6221H753.524V73.2271V74.8321H771.429V73.2271ZM771.429 73.2271V74.8321H789.335V73.2271V71.6221H771.429V73.2271ZM789.335 73.2271H787.73V91.1326H789.335H790.94V73.2271H789.335ZM771.429 91.1326H773.034V73.2271H771.429H769.824V91.1326H771.429ZM789.335 91.1326H787.73V109.038H789.335H790.94V91.1326H789.335ZM789.335 109.038V107.433H771.429V109.038V110.643H789.335V109.038ZM753.524 91.1326V92.7376H771.429V91.1326V89.5276H753.524V91.1326ZM771.429 109.038V107.433H753.524V109.038V110.643H771.429V109.038ZM735.618 91.1326V92.7376H753.524V91.1326V89.5276H735.618V91.1326ZM753.524 109.038V107.433H735.618V109.038V110.643H753.524V109.038ZM771.429 126.944V128.549H789.335V126.944V125.339H771.429V126.944ZM789.335 126.944H787.73V144.849H789.335H790.94V126.944H789.335ZM789.335 144.849V143.244H771.429V144.849V146.454H789.335V144.849ZM771.429 144.849H773.034V126.944H771.429H769.824V144.849H771.429ZM19.511 321.399V323.004H37.4165V321.399V319.794H19.511V321.399ZM37.4165 321.399H35.8115V339.305H37.4165H39.0215V321.399H37.4165ZM37.4165 339.305V337.7H19.511V339.305V340.91H37.4165V339.305ZM19.511 339.305H21.116V321.399H19.511H17.906V339.305H19.511ZM55.322 321.399V323.004H73.2276V321.399V319.794H55.322V321.399ZM73.2276 321.399H71.6226V339.305H73.2276H74.8326V321.399H73.2276ZM73.2276 339.305V337.7H55.322V339.305V340.91H73.2276V339.305ZM55.322 339.305H56.927V321.399H55.322H53.717V339.305H55.322ZM55.322 303.494H53.717V321.399H55.322H56.927V303.494H55.322ZM55.322 321.399V319.794H37.4165V321.399V323.004H55.322V321.399ZM37.4165 321.399H39.0215V303.494H37.4165H35.8115V321.399H37.4165ZM55.322 285.588H53.717V303.494H55.322H56.927V285.588H55.322ZM37.4165 303.494H39.0215V285.588H37.4165H35.8115V303.494H37.4165ZM55.322 267.682H53.717V285.588H55.322H56.927V267.682H55.322ZM37.4165 285.588H39.0215V267.682H37.4165H35.8115V285.588H37.4165ZM37.4165 249.777V251.382H55.322V249.777V248.172H37.4165V249.777ZM37.4165 267.682H39.0215V249.777H37.4165H35.8115V267.682H37.4165ZM19.511 231.871V233.476H37.4165V231.871V230.266H19.511V231.871ZM37.4165 231.871H35.8115V249.777H37.4165H39.0215V231.871H37.4165ZM37.4165 249.777V248.172H19.511V249.777V251.382H37.4165V249.777ZM19.511 249.777H21.116V231.871H19.511H17.906V249.777H19.511ZM1.60547 249.777V251.382H19.511V249.777V248.172H1.60547V249.777ZM19.511 249.777H17.906V267.682H19.511H21.116V249.777H19.511ZM19.511 267.682V266.077H1.60547V267.682V269.287H19.511V267.682ZM1.60547 267.682H3.21047V249.777H1.60547H0.000470042V267.682H1.60547ZM55.322 249.777V251.382H73.2276V249.777V248.172H55.322V249.777ZM73.2276 249.777H71.6226V267.682H73.2276H74.8326V249.777H73.2276ZM73.2276 267.682V266.077H55.322V267.682V269.287H73.2276V267.682ZM73.2276 231.871V233.476H91.1331V231.871V230.266H73.2276V231.871ZM91.1331 231.871H89.5281V249.777H91.1331H92.7381V231.871H91.1331ZM91.1331 249.777V248.172H73.2276V249.777V251.382H91.1331V249.777ZM73.2276 249.777H74.8326V231.871H73.2276H71.6226V249.777H73.2276ZM91.1331 249.777V251.382H109.039V249.777V248.172H91.1331V249.777ZM91.1331 267.682H92.7381V249.777H91.1331H89.5281V267.682H91.1331ZM109.039 267.682H107.434V285.588H109.039H110.644V267.682H109.039ZM91.1331 285.588H92.7381V267.682H91.1331H89.5281V285.588H91.1331ZM109.039 285.588H107.434V303.494H109.039H110.644V285.588H109.039ZM91.1331 303.494H92.7381V285.588H91.1331H89.5281V303.494H91.1331ZM109.039 303.494H107.434V321.399H109.039H110.644V303.494H109.039ZM109.039 321.399V319.794H91.1331V321.399V323.004H109.039V321.399ZM91.1331 321.399H92.7381V303.494H91.1331H89.5281V321.399H91.1331ZM109.039 321.399V323.004H126.944V321.399V319.794H109.039V321.399ZM126.944 321.399H125.339V339.305H126.944H128.549V321.399H126.944ZM126.944 339.305V337.7H109.039V339.305V340.91H126.944V339.305ZM109.039 339.305H110.644V321.399H109.039H107.434V339.305H109.039ZM109.039 249.777V251.382H126.944V249.777V248.172H109.039V249.777ZM126.944 249.777H125.339V267.682H126.944H128.549V249.777H126.944ZM126.944 267.682V266.077H109.039V267.682V269.287H126.944V267.682ZM126.944 231.871V233.476H144.85V231.871V230.266H126.944V231.871ZM144.85 231.871H143.245V249.777H144.85H146.455V231.871H144.85ZM144.85 249.777V248.172H126.944V249.777V251.382H144.85V249.777ZM126.944 249.777H128.549V231.871H126.944H125.339V249.777H126.944ZM144.85 249.777V251.382H162.755V249.777V248.172H144.85V249.777ZM162.755 249.777H161.15V267.682H162.755H164.36V249.777H162.755ZM144.85 267.682H146.455V249.777H144.85H143.245V267.682H144.85ZM162.755 267.682H161.15V285.588H162.755H164.36V267.682H162.755ZM144.85 285.588H146.455V267.682H144.85H143.245V285.588H144.85ZM162.755 285.588H161.15V303.494H162.755H164.36V285.588H162.755ZM144.85 303.494H146.455V285.588H144.85H143.245V303.494H144.85ZM162.755 303.494H161.15V321.399H162.755H164.36V303.494H162.755ZM162.755 321.399V319.794H144.85V321.399V323.004H162.755V321.399ZM144.85 321.399H146.455V303.494H144.85H143.245V321.399H144.85ZM162.755 321.399V323.004H180.661V321.399V319.794H162.755V321.399ZM180.661 321.399H179.056V339.305H180.661H182.266V321.399H180.661ZM180.661 339.305V337.7H162.755V339.305V340.91H180.661V339.305ZM162.755 339.305H164.36V321.399H162.755H161.15V339.305H162.755ZM198.461 321.399V323.004H216.367V321.399V319.794H198.461V321.399ZM216.367 321.399H214.762V339.305H216.367H217.972V321.399H216.367ZM216.367 339.305V337.7H198.461V339.305V340.91H216.367V339.305ZM198.461 339.305H200.066V321.399H198.461H196.856V339.305H198.461ZM234.272 303.494H232.667V321.399H234.272H235.877V303.494H234.272ZM234.272 321.399V319.794H216.367V321.399V323.004H234.272V321.399ZM216.367 321.399H217.972V303.494H216.367H214.762V321.399H216.367ZM234.272 285.588H232.667V303.494H234.272H235.877V285.588H234.272ZM216.367 303.494H217.972V285.588H216.367H214.762V303.494H216.367ZM234.272 267.682H232.667V285.588H234.272H235.877V267.682H234.272ZM216.367 285.588H217.972V267.682H216.367H214.762V285.588H216.367ZM216.367 249.777V251.382H234.272V249.777V248.172H216.367V249.777ZM234.272 249.777H232.667V267.682H234.272H235.877V249.777H234.272ZM216.367 267.682H217.972V249.777H216.367H214.762V267.682H216.367ZM234.272 231.871V233.476H252.178V231.871V230.266H234.272V231.871ZM252.178 249.777V248.172H234.272V249.777V251.382H252.178V249.777ZM234.272 249.777H235.877V231.871H234.272H232.667V249.777H234.272ZM252.178 231.871V233.476H270.083V231.871V230.266H252.178V231.871ZM270.083 231.871H268.478V249.777H270.083H271.688V231.871H270.083ZM270.083 249.777V248.172H252.178V249.777V251.382H270.083V249.777ZM287.989 231.871V233.476H305.894V231.871V230.266H287.989V231.871ZM305.894 231.871H304.289V249.777H305.894H307.499V231.871H305.894ZM305.894 249.777V248.172H287.989V249.777V251.382H305.894V249.777ZM287.989 249.777H289.594V231.871H287.989H286.384V249.777H287.989ZM270.083 249.777V251.382H287.989V249.777V248.172H270.083V249.777ZM287.989 249.777H286.384V267.682H287.989H289.594V249.777H287.989ZM270.083 267.682H271.688V249.777H270.083H268.478V267.682H270.083ZM287.989 267.682H286.384V285.588H287.989H289.594V267.682H287.989ZM270.083 285.588H271.688V267.682H270.083H268.478V285.588H270.083ZM287.989 285.588H286.384V303.494H287.989H289.594V285.588H287.989ZM270.083 303.494H271.688V285.588H270.083H268.478V303.494H270.083ZM287.989 303.494H286.384V321.399H287.989H289.594V303.494H287.989ZM287.989 321.399V319.794H270.083V321.399V323.004H287.989V321.399ZM234.272 321.399V323.004H252.178V321.399V319.794H234.272V321.399ZM252.178 321.399H250.573V339.305H252.178H253.783V321.399H252.178ZM252.178 339.305V337.7H234.272V339.305V340.91H252.178V339.305ZM234.272 339.305H235.877V321.399H234.272H232.667V339.305H234.272ZM252.178 303.494V305.099H270.083V303.494V301.889H252.178V303.494ZM270.083 321.399V319.794H252.178V321.399V323.004H270.083V321.399ZM252.178 321.399H253.783V303.494H252.178H250.573V321.399H252.178ZM287.989 321.399V323.004H305.894V321.399V319.794H287.989V321.399ZM305.894 321.399H304.289V339.305H305.894H307.499V321.399H305.894ZM305.894 339.305V337.7H287.989V339.305V340.91H305.894V339.305ZM287.989 339.305H289.594V321.399H287.989H286.384V339.305H287.989ZM323.713 249.777V251.382H341.618V249.777V248.172H323.713V249.777ZM341.618 249.777H340.013V267.682H341.618H343.223V249.777H341.618ZM341.618 267.682V266.077H323.713V267.682V269.287H341.618V267.682ZM323.713 267.682H325.318V249.777H323.713H322.108V267.682H323.713ZM341.618 231.871V233.476H359.524V231.871V230.266H341.618V231.871ZM359.524 249.777V248.172H341.618V249.777V251.382H359.524V249.777ZM341.618 249.777H343.223V231.871H341.618H340.013V249.777H341.618ZM359.524 231.871V233.476H377.429V231.871V230.266H359.524V231.871ZM377.429 249.777V248.172H359.524V249.777V251.382H377.429V249.777ZM413.24 249.777H411.635V267.682H413.24H414.845V249.777H413.24ZM413.24 267.682V266.077H395.335V267.682V269.287H413.24V267.682ZM395.335 267.682H396.94V249.777H395.335H393.73V267.682H395.335ZM377.429 267.682V269.287H395.335V267.682V266.077H377.429V267.682ZM395.335 267.682H393.73V285.588H395.335H396.94V267.682H395.335ZM395.335 285.588V283.983H377.429V285.588V287.193H395.335V285.588ZM377.429 285.588H379.034V267.682H377.429H375.824V285.588H377.429ZM359.524 285.588V287.193H377.429V285.588V283.983H359.524V285.588ZM377.429 285.588H375.824V303.494H377.429H379.034V285.588H377.429ZM377.429 303.494V301.889H359.524V303.494V305.099H377.429V303.494ZM359.524 303.494H361.129V285.588H359.524H357.919V303.494H359.524ZM341.618 303.494V305.099H359.524V303.494V301.889H341.618V303.494ZM359.524 303.494H357.919V321.399H359.524H361.129V303.494H359.524ZM359.524 321.399V319.794H341.618V321.399V323.004H359.524V321.399ZM341.618 321.399H343.223V303.494H341.618H340.013V321.399H341.618ZM377.429 303.494V305.099H395.335V303.494V301.889H377.429V303.494ZM395.335 321.399V319.794H377.429V321.399V323.004H395.335V321.399ZM377.429 321.399H379.034V303.494H377.429H375.824V321.399H377.429ZM359.524 375.116V376.721H377.429V375.116V373.511H359.524V375.116ZM377.429 393.021V391.416H359.524V393.021V394.626H377.429V393.021ZM377.429 375.116V376.721H395.335V375.116V373.511H377.429V375.116ZM395.335 375.116H393.73V393.021H395.335H396.94V375.116H395.335ZM395.335 393.021V391.416H377.429V393.021V394.626H395.335V393.021ZM341.618 375.116V376.721H359.524V375.116V373.511H341.618V375.116ZM359.524 393.021V391.416H341.618V393.021V394.626H359.524V393.021ZM341.618 393.021H343.223V375.116H341.618H340.013V393.021H341.618ZM323.713 357.21V358.815H341.618V357.21V355.605H323.713V357.21ZM341.618 357.21H340.013V375.116H341.618H343.223V357.21H341.618ZM341.618 375.116V373.511H323.713V375.116V376.721H341.618V375.116ZM323.713 375.116H325.318V357.21H323.713H322.108V375.116H323.713ZM413.24 321.399H411.635V339.305H413.24H414.845V321.399H413.24ZM395.335 339.305H396.94V321.399H395.335H393.73V339.305H395.335ZM413.24 339.305H411.635V357.21H413.24H414.845V339.305H413.24ZM395.335 357.21H396.94V339.305H395.335H393.73V357.21H395.335ZM413.24 357.21H411.635V375.116H413.24H414.845V357.21H413.24ZM413.24 375.116V373.511H395.335V375.116V376.721H413.24V375.116ZM395.335 375.116H396.94V357.21H395.335H393.73V375.116H395.335ZM377.429 231.871V233.476H395.335V231.871V230.266H377.429V231.871ZM395.335 249.777V248.172H377.429V249.777V251.382H395.335V249.777ZM395.335 231.871V233.476H413.24V231.871V230.266H395.335V231.871ZM413.24 231.871H411.635V249.777H413.24H414.845V231.871H413.24ZM395.335 303.494V305.099H413.24V303.494V301.889H395.335V303.494ZM413.24 303.494H411.635V321.399H413.24H414.845V303.494H413.24ZM431.233 249.777V251.382H449.139V249.777V248.172H431.233V249.777ZM449.139 249.777H447.534V267.682H449.139H450.744V249.777H449.139ZM449.139 267.682V266.077H431.233V267.682V269.287H449.139V267.682ZM431.233 267.682H432.838V249.777H431.233H429.628V267.682H431.233ZM449.139 231.871V233.476H467.044V231.871V230.266H449.139V231.871ZM467.044 231.871H465.439V249.777H467.044H468.649V231.871H467.044ZM467.044 249.777V248.172H449.139V249.777V251.382H467.044V249.777ZM449.139 249.777H450.744V231.871H449.139H447.534V249.777H449.139ZM467.044 249.777V251.382H484.95V249.777V248.172H467.044V249.777ZM484.95 249.777H483.345V267.682H484.95H486.555V249.777H484.95ZM467.044 267.682H468.649V249.777H467.044H465.439V267.682H467.044ZM484.95 267.682H483.345V285.588H484.95H486.555V267.682H484.95ZM467.044 285.588H468.649V267.682H467.044H465.439V285.588H467.044ZM484.95 285.588H483.345V303.494H484.95H486.555V285.588H484.95ZM467.044 303.494H468.649V285.588H467.044H465.439V303.494H467.044ZM484.95 303.494H483.345V321.399H484.95H486.555V303.494H484.95ZM484.95 321.399V319.794H467.044V321.399V323.004H484.95V321.399ZM467.044 321.399H468.649V303.494H467.044H465.439V321.399H467.044ZM484.95 321.399V323.004H502.855V321.399V319.794H484.95V321.399ZM502.855 321.399H501.25V339.305H502.855H504.46V321.399H502.855ZM502.855 339.305V337.7H484.95V339.305V340.91H502.855V339.305ZM484.95 339.305H486.555V321.399H484.95H483.345V339.305H484.95ZM449.139 321.399V323.004H467.044V321.399V319.794H449.139V321.399ZM467.044 321.399H465.439V339.305H467.044H468.649V321.399H467.044ZM467.044 339.305V337.7H449.139V339.305V340.91H467.044V339.305ZM449.139 339.305H450.744V321.399H449.139H447.534V339.305H449.139ZM538.666 303.494H537.061V321.399H538.666H540.271V303.494H538.666ZM538.666 321.399V319.794H520.761V321.399V323.004H538.666V321.399ZM502.855 303.494V305.099H520.761V303.494V301.889H502.855V303.494ZM520.761 321.399V319.794H502.855V321.399V323.004H520.761V321.399ZM502.855 321.399H504.46V303.494H502.855H501.25V321.399H502.855ZM538.666 321.399V323.004H556.572V321.399V319.794H538.666V321.399ZM556.572 321.399H554.967V339.305H556.572H558.177V321.399H556.572ZM556.572 339.305V337.7H538.666V339.305V340.91H556.572V339.305ZM538.666 339.305H540.271V321.399H538.666H537.061V339.305H538.666ZM556.572 303.494V305.099H574.477V303.494V301.889H556.572V303.494ZM574.477 303.494H572.872V321.399H574.477H576.082V303.494H574.477ZM574.477 321.399V319.794H556.572V321.399V323.004H574.477V321.399ZM556.572 321.399H558.177V303.494H556.572H554.967V321.399H556.572ZM538.666 285.588H537.061V303.494H538.666H540.271V285.588H538.666ZM520.761 303.494H522.366V285.588H520.761H519.156V303.494H520.761ZM538.666 267.682H537.061V285.588H538.666H540.271V267.682H538.666ZM520.761 285.588H522.366V267.682H520.761H519.156V285.588H520.761ZM520.761 267.682H522.366V249.777H520.761H519.156V267.682H520.761ZM520.761 231.871V233.476H538.666V231.871V230.266H520.761V231.871ZM538.666 231.871H537.061V249.777H538.666H540.271V231.871H538.666ZM520.761 249.777H522.366V231.871H520.761H519.156V249.777H520.761ZM538.666 249.777V251.382H556.572V249.777V248.172H538.666V249.777ZM556.572 249.777H554.967V267.682H556.572H558.177V249.777H556.572ZM556.572 267.682V266.077H538.666V267.682V269.287H556.572V267.682ZM556.572 231.871V233.476H574.477V231.871V230.266H556.572V231.871ZM574.477 231.871H572.872V249.777H574.477H576.082V231.871H574.477ZM574.477 249.777V248.172H556.572V249.777V251.382H574.477V249.777ZM556.572 249.777H558.177V231.871H556.572H554.967V249.777H556.572ZM646.117 285.588H644.512V303.494H646.117H647.722V285.588H646.117ZM628.211 303.494H629.816V285.588H628.211H626.606V303.494H628.211ZM646.117 267.682H644.512V285.588H646.117H647.722V267.682H646.117ZM628.211 285.588H629.816V267.682H628.211H626.606V285.588H628.211ZM628.211 249.777V251.382H646.117V249.777V248.172H628.211V249.777ZM646.117 249.777H644.512V267.682H646.117H647.722V249.777H646.117ZM628.211 267.682H629.816V249.777H628.211H626.606V267.682H628.211ZM610.306 231.871V233.476H628.211V231.871V230.266H610.306V231.871ZM628.211 231.871H626.606V249.777H628.211H629.816V231.871H628.211ZM628.211 249.777V248.172H610.306V249.777V251.382H628.211V249.777ZM610.306 249.777H611.911V231.871H610.306H608.701V249.777H610.306ZM592.4 249.777V251.382H610.306V249.777V248.172H592.4V249.777ZM610.306 249.777H608.701V267.682H610.306H611.911V249.777H610.306ZM610.306 267.682V266.077H592.4V267.682V269.287H610.306V267.682ZM592.4 267.682H594.005V249.777H592.4H590.795V267.682H592.4ZM646.117 231.871V233.476H664.022V231.871V230.266H646.117V231.871ZM664.022 249.777V248.172H646.117V249.777V251.382H664.022V249.777ZM646.117 249.777H647.722V231.871H646.117H644.512V249.777H646.117ZM664.022 231.871V233.476H681.928V231.871V230.266H664.022V231.871ZM681.928 231.871H680.323V249.777H681.928H683.533V231.871H681.928ZM681.928 249.777V248.172H664.022V249.777V251.382H681.928V249.777ZM681.928 249.777V251.382H699.833V249.777V248.172H681.928V249.777ZM699.833 249.777H698.228V267.682H699.833H701.438V249.777H699.833ZM699.833 267.682V266.077H681.928V267.682V269.287H699.833V267.682ZM681.928 267.682H683.533V249.777H681.928H680.323V267.682H681.928ZM646.117 303.494H644.512V321.399H646.117H647.722V303.494H646.117ZM646.117 321.399V319.794H628.211V321.399V323.004H646.117V321.399ZM628.211 321.399H629.816V303.494H628.211H626.606V321.399H628.211ZM610.306 321.399V323.004H628.211V321.399V319.794H610.306V321.399ZM628.211 321.399H626.606V339.305H628.211H629.816V321.399H628.211ZM628.211 339.305V337.7H610.306V339.305V340.91H628.211V339.305ZM610.306 339.305H611.911V321.399H610.306H608.701V339.305H610.306ZM664.022 303.494V305.099H681.928V303.494V301.889H664.022V303.494ZM681.928 303.494H680.323V321.399H681.928H683.533V303.494H681.928ZM681.928 321.399V319.794H664.022V321.399V323.004H681.928V321.399ZM664.022 321.399H665.627V303.494H664.022H662.417V321.399H664.022ZM646.117 321.399V323.004H664.022V321.399V319.794H646.117V321.399ZM664.022 321.399H662.417V339.305H664.022H665.627V321.399H664.022ZM664.022 339.305V337.7H646.117V339.305V340.91H664.022V339.305ZM646.117 339.305H647.722V321.399H646.117H644.512V339.305H646.117ZM717.652 321.399V323.004H735.557V321.399V319.794H717.652V321.399ZM735.557 321.399H733.952V339.305H735.557H737.162V321.399H735.557ZM735.557 339.305V337.7H717.652V339.305V340.91H735.557V339.305ZM717.652 339.305H719.257V321.399H717.652H716.047V339.305H717.652ZM753.463 321.399V323.004H771.368V321.399V319.794H753.463V321.399ZM771.368 339.305V337.7H753.463V339.305V340.91H771.368V339.305ZM753.463 339.305H755.068V321.399H753.463H751.858V339.305H753.463ZM771.368 321.399V323.004H789.274V321.399V319.794H771.368V321.399ZM789.274 321.399H787.669V339.305H789.274H790.879V321.399H789.274ZM789.274 339.305V337.7H771.368V339.305V340.91H789.274V339.305ZM753.463 303.494H751.858V321.399H753.463H755.068V303.494H753.463ZM753.463 321.399V319.794H735.557V321.399V323.004H753.463V321.399ZM735.557 321.399H737.162V303.494H735.557H733.952V321.399H735.557ZM753.463 285.588H751.858V303.494H753.463H755.068V285.588H753.463ZM735.557 303.494H737.162V285.588H735.557H733.952V303.494H735.557ZM735.557 285.588H737.162V267.682H735.557H733.952V285.588H735.557ZM735.557 249.777V251.382H753.463V249.777V248.172H735.557V249.777ZM753.463 249.777H751.858V267.682H753.463H755.068V249.777H753.463ZM735.557 267.682H737.162V249.777H735.557H733.952V267.682H735.557ZM753.463 231.871V233.476H771.368V231.871V230.266H753.463V231.871ZM771.368 249.777V248.172H753.463V249.777V251.382H771.368V249.777ZM753.463 249.777H755.068V231.871H753.463H751.858V249.777H753.463ZM771.368 231.871V233.476H789.274V231.871V230.266H771.368V231.871ZM789.274 231.871H787.669V249.777H789.274H790.879V231.871H789.274ZM789.274 249.777V248.172H771.368V249.777V251.382H789.274V249.777ZM789.274 249.777V251.382H807.179V249.777V248.172H789.274V249.777ZM807.179 249.777H805.574V267.682H807.179H808.784V249.777H807.179ZM789.274 267.682H790.879V249.777H789.274H787.669V267.682H789.274ZM807.179 267.682H805.574V285.588H807.179H808.784V267.682H807.179ZM807.179 285.588V283.983H789.274V285.588V287.193H807.179V285.588ZM771.368 267.682V269.287H789.274V267.682V266.077H771.368V267.682ZM789.274 285.588V283.983H771.368V285.588V287.193H789.274V285.588ZM753.463 267.682V269.287H771.368V267.682V266.077H753.463V267.682ZM771.368 285.588V283.983H753.463V285.588V287.193H771.368V285.588ZM789.274 303.494V305.099H807.179V303.494V301.889H789.274V303.494ZM807.179 303.494H805.574V321.399H807.179H808.784V303.494H807.179ZM807.179 321.399V319.794H789.274V321.399V323.004H807.179V321.399ZM789.274 321.399H790.879V303.494H789.274H787.669V321.399H789.274ZM825.172 321.399V323.004H843.078V321.399V319.794H825.172V321.399ZM843.078 321.399H841.473V339.305H843.078H844.683V321.399H843.078ZM843.078 339.305V337.7H825.172V339.305V340.91H843.078V339.305ZM825.172 339.305H826.777V321.399H825.172H823.567V339.305H825.172ZM860.983 321.399V323.004H878.889V321.399V319.794H860.983V321.399ZM878.889 321.399H877.284V339.305H878.889H880.494V321.399H878.889ZM878.889 339.305V337.7H860.983V339.305V340.91H878.889V339.305ZM860.983 339.305H862.588V321.399H860.983H859.378V339.305H860.983ZM860.983 303.494H859.378V321.399H860.983H862.588V303.494H860.983ZM860.983 321.399V319.794H843.078V321.399V323.004H860.983V321.399ZM843.078 321.399H844.683V303.494H843.078H841.473V321.399H843.078ZM843.078 303.494H844.683V285.588H843.078H841.473V303.494H843.078ZM860.983 267.682H859.378V285.588H860.983H862.588V267.682H860.983ZM843.078 285.588H844.683V267.682H843.078H841.473V285.588H843.078ZM860.983 249.777H859.378V267.682H860.983H862.588V249.777H860.983ZM843.078 267.682H844.683V249.777H843.078H841.473V267.682H843.078ZM860.983 231.871H859.378V249.777H860.983H862.588V231.871H860.983ZM843.078 249.777H844.683V231.871H843.078H841.473V249.777H843.078ZM843.078 196.06V197.665H860.983V196.06V194.455H843.078V196.06ZM860.983 196.06H859.378V213.966H860.983H862.588V196.06H860.983ZM843.078 213.966H844.683V196.06H843.078H841.473V213.966H843.078ZM860.983 213.966H859.378V231.871H860.983H862.588V213.966H860.983ZM843.078 231.871H844.683V213.966H843.078H841.473V231.871H843.078ZM860.983 178.155V179.76H878.889V178.155V176.55H860.983V178.155ZM878.889 178.155H877.284V196.06H878.889H880.494V178.155H878.889ZM878.889 196.06V194.455H860.983V196.06V197.665H878.889V196.06ZM860.983 196.06H862.588V178.155H860.983H859.378V196.06H860.983ZM860.983 285.588V287.193H878.889V285.588V283.983H860.983V285.588ZM878.889 285.588H877.284V303.494H878.889H880.494V285.588H878.889ZM878.889 303.494V301.889H860.983V303.494V305.099H878.889V303.494ZM878.889 267.682V269.287H896.794V267.682V266.077H878.889V267.682ZM896.794 267.682H895.189V285.588H896.794H898.399V267.682H896.794ZM896.794 285.588V283.983H878.889V285.588V287.193H896.794V285.588ZM878.889 285.588H880.494V267.682H878.889H877.284V285.588H878.889ZM896.794 249.777V251.382H914.7V249.777V248.172H896.794V249.777ZM914.7 249.777H913.095V267.682H914.7H916.305V249.777H914.7ZM914.7 267.682V266.077H896.794V267.682V269.287H914.7V267.682ZM896.794 267.682H898.399V249.777H896.794H895.189V267.682H896.794ZM914.7 231.871V233.476H932.605V231.871V230.266H914.7V231.871ZM932.605 231.871H931V249.777H932.605H934.21V231.871H932.605ZM932.605 249.777V248.172H914.7V249.777V251.382H932.605V249.777ZM914.7 249.777H916.305V231.871H914.7H913.095V249.777H914.7ZM896.794 285.588V287.193H914.7V285.588V283.983H896.794V285.588ZM914.7 285.588H913.095V303.494H914.7H916.305V285.588H914.7ZM896.794 303.494H898.399V285.588H896.794H895.189V303.494H896.794ZM914.7 303.494H913.095V321.399H914.7H916.305V303.494H914.7ZM914.7 321.399V319.794H896.794V321.399V323.004H914.7V321.399ZM896.794 321.399H898.399V303.494H896.794H895.189V321.399H896.794ZM914.7 321.399V323.004H932.605V321.399V319.794H914.7V321.399ZM932.605 321.399H931V339.305H932.605H934.21V321.399H932.605ZM932.605 339.305V337.7H914.7V339.305V340.91H932.605V339.305ZM914.7 339.305H916.305V321.399H914.7H913.095V339.305H914.7Z" fill="#CEB897" mask="url(#path-1-outside-1_50_16)"/>
</svg>
