<svg width="303" height="298" viewBox="0 0 303 298" fill="none" xmlns="http://www.w3.org/2000/svg">
<g clip-path="url(#clip0_34_5)">
<path d="M231.508 275.47C231.044 276.306 230.197 277.063 229.557 277.783C210.095 299.615 175.612 297.038 148.899 297.086L115.301 297.204C92.5094 297.302 69.717 297.149 46.9287 296.74C38.6834 296.479 30.4355 296.3 22.1865 296.207C16.4066 296.194 10.3105 296.635 4.58114 296.07C3.27728 295.941 1.58661 295.635 0.665608 294.625C-0.526452 293.32 0.940878 254.279 0.998095 250.462L1.53361 209.952C1.72636 200.581 2.17829 191.158 2.22048 181.78C2.02405 139.156 2.20703 96.5307 2.7697 53.9093C2.86621 37.8064 2.76866 21.6631 2.93187 5.55405C2.95033 3.7253 2.92686 3.06675 4.21411 1.84328C8.76297 0.485037 27.9003 0.825785 33.8345 0.813916L85.1345 0.822885L222.063 0.94974L273.569 0.971894C277.977 0.975587 298.327 0.49585 300.972 1.59431C302.195 2.97998 302.293 5.2518 302.306 7.04389C302.351 13.3424 302.159 19.7077 302.048 26.0084L301.613 53.8568L300.761 115.623L300.558 158.092C300.516 171.436 301.062 186.211 298.019 199.187C295.699 209.074 290.122 216.216 283.335 223.385C268.881 238.138 254.173 252.617 239.402 267.046C236.665 269.72 234.176 272.896 231.508 275.47Z" fill="#FEE47C"/>
<path d="M231.508 275.47C231.661 274.183 232.628 271.669 233.056 270.306C233.736 268.106 234.345 265.883 234.883 263.641C237.098 254.693 238.303 246.44 239.531 237.341C239.65 236.624 240.481 234.366 241.203 234.161C252.781 230.884 265.245 231.424 276.488 225.82C277.948 225.093 281.824 223.128 283.335 223.385C268.881 238.138 254.173 252.617 239.402 267.046C236.665 269.72 234.176 272.896 231.508 275.47Z" fill="#E4BA57"/>
</g>
<defs>
<clipPath id="clip0_34_5">
<rect width="303" height="298" fill="white"/>
</clipPath>
</defs>
</svg>
