<svg width="384" height="384" viewBox="0 0 384 384" fill="none" xmlns="http://www.w3.org/2000/svg">
<rect width="384" height="384" fill="#FF90E8"/>
<path d="M237.154 219.458C234.666 233.987 225.878 250.353 213.76 258.885C199.3 269.066 180.597 271.006 163.492 268.004C147.14 265.135 131.335 255.163 121.836 241.566C107.62 221.22 102.834 194.418 107.176 170.165C111.146 147.989 120.791 129.282 139.647 116.219C160.319 101.898 189.093 99.1655 213.36 103.63C231.489 106.965 248.951 117.272 259.441 132.555C266.088 142.241 269.055 151.91 270.248 163.468L228.477 163.491C227.101 153.479 223.201 145.727 215.055 139.257C205.882 131.974 193.437 131.564 182.276 132.876C171.551 134.307 162.046 141.061 155.793 149.69C145.896 163.345 143.249 180.653 145.861 197.033C149.935 222.58 170.138 242.771 197.163 238.736C217.638 235.68 226.373 218.14 231.215 199.915C217.881 199.91 204.324 199.777 191.008 199.953C190.989 194.614 190.901 189.098 191.017 183.775C193.695 184.11 198.296 183.979 201.17 183.976L217.842 183.965L275 183.981L274.996 265.674C262.895 265.419 250.382 265.566 238.25 265.58L238.204 219.855L237.154 219.458Z" fill="black"/>
<path d="M246.647 226.344C246.832 225.101 246.983 223.155 247.685 222.211C248.264 223.17 247.963 225.574 247.908 226.821L246.647 226.344Z" fill="#D795C5"/>
</svg>
