<svg width="384" height="384" viewBox="0 0 384 384" fill="none" xmlns="http://www.w3.org/2000/svg">
<g clip-path="url(#clip0_67_23)">
<path d="M0 0H384V384H0V0Z" fill="#44B1FF"/>
<path d="M111.767 113.727C124.673 113.424 137.737 113.826 150.662 113.665C157.159 113.585 163.823 113.597 170.312 113.714C170.656 119.02 170.542 125.814 170.54 131.2L170.537 158.594C170.544 161.883 170.293 173.364 171.189 176.021C171.716 176.489 171.456 176.358 172.249 176.444C173.018 176.193 173.757 174.721 174.012 173.978C179.158 158.957 184.883 145.582 196.376 134.16C213.813 116.829 239.891 113.532 263.398 113.753C263.876 130.104 263.376 146.61 263.555 162.976C263.605 167.492 263.508 172.018 263.327 176.53L229.889 176.536C224.39 176.537 215.109 176.279 209.874 176.921L210.836 179.12C218.971 181.738 223.713 181.96 232.051 186.548C251.079 197.016 260.718 213.068 266.843 232.999C270.887 247.009 272.276 261.203 272.254 275.748C261.351 275.95 250.445 276.001 239.541 275.902C230.281 275.905 220.407 276.08 211.188 275.777C210.868 271.472 210.77 267.247 210.547 262.904C209.759 247.557 207.36 229.176 195.345 218.328C188.941 212.546 179.069 209.784 170.634 210.342C170.279 232.083 170.826 253.949 170.404 275.683C167.9 275.859 165.074 275.943 162.565 275.905C144.859 275.639 126.873 276.346 109.201 275.761C108.693 269.241 109.019 259.129 109.019 252.296L109.019 208.928L109.016 147.726C109.013 136.919 108.73 124.577 109.129 113.892L111.767 113.727Z" fill="#1E1E1E"/>
</g>
<defs>
<clipPath id="clip0_67_23">
<rect width="384" height="384" fill="white"/>
</clipPath>
</defs>
</svg>
