<svg width="384" height="384" viewBox="0 0 384 384" fill="none" xmlns="http://www.w3.org/2000/svg">
<g clip-path="url(#clip0_65_6)">
<path d="M0 0H384V384H0V0Z" fill="#E74233"/>
<path d="M187.673 122.857C192.907 122.22 203.443 123.127 208.569 124.383C228.366 129.234 242.227 140.098 252.925 157.016C249.986 158.341 244.769 161.66 241.895 163.406L223.089 174.828L204.289 186.159C201.697 187.733 196.412 190.778 194.246 192.605C210.774 202.935 227.022 214.182 243.551 224.555C246.279 226.267 249.037 228.151 251.865 229.68C250.338 231.646 248.931 233.867 247.332 235.912C243.276 241.074 238.511 245.638 233.178 249.468C221.952 256.92 212.022 261.005 198.425 262.152C179.937 263.715 161.062 257.877 146.962 245.68C132.923 233.725 124.263 216.64 122.919 198.25C120.151 158.897 148.116 125.63 187.673 122.857Z" fill="#FDFAFA"/>
</g>
<defs>
<clipPath id="clip0_65_6">
<rect width="384" height="384" fill="white"/>
</clipPath>
</defs>
</svg>
